<mxfile host="app.diagrams.net" modified="2023-05-17T14:09:10.265Z" agent="Mozilla/5.0 (Windows NT 10.0; Win64; x64) AppleWebKit/537.36 (KHTML, like Gecko) Chrome/110.0.0.0 YaBrowser/23.3.4.594 Yowser/2.5 Safari/537.36" etag="OfoPBloUwLgmmDrvKUpJ" version="21.3.0" type="browser">
  <diagram id="DedFYuknbq_vAPVtTDtG" name="Page-1">
    <mxGraphModel dx="4412" dy="1918" grid="1" gridSize="10" guides="1" tooltips="1" connect="1" arrows="1" fold="1" page="1" pageScale="1" pageWidth="827" pageHeight="1169" math="0" shadow="0">
      <root>
        <mxCell id="0" />
        <mxCell id="1" parent="0" />
        <mxCell id="ljuwAe2FuJhUJJeVi3LY-82" value="" style="endArrow=open;endSize=12;dashed=1;html=1;rounded=0;exitX=0.5;exitY=0;exitDx=0;exitDy=0;entryX=0.998;entryY=0.108;entryDx=0;entryDy=0;edgeStyle=orthogonalEdgeStyle;entryPerimeter=0;" parent="1" source="ljuwAe2FuJhUJJeVi3LY-75" target="ljuwAe2FuJhUJJeVi3LY-75" edge="1">
          <mxGeometry width="160" relative="1" as="geometry">
            <mxPoint x="-352.75" y="1145" as="sourcePoint" />
            <mxPoint x="-353.75" y="1056" as="targetPoint" />
            <Array as="points">
              <mxPoint x="-510.75" y="1115" />
              <mxPoint x="-293.75" y="1115" />
              <mxPoint x="-293.75" y="1157" />
            </Array>
          </mxGeometry>
        </mxCell>
        <mxCell id="ljuwAe2FuJhUJJeVi3LY-53" value="EEPROMVar" style="swimlane;fontStyle=1;align=center;verticalAlign=top;childLayout=stackLayout;horizontal=1;startSize=26;horizontalStack=0;resizeParent=1;resizeParentMax=0;resizeLast=0;collapsible=1;marginBottom=0;" parent="1" vertex="1">
          <mxGeometry x="-706.25" y="800" width="390" height="180" as="geometry" />
        </mxCell>
        <mxCell id="ljuwAe2FuJhUJJeVi3LY-54" value="- dataAddr: uint16_t&#xa;- data: T" style="text;strokeColor=none;fillColor=none;align=left;verticalAlign=top;spacingLeft=4;spacingRight=4;overflow=hidden;rotatable=0;points=[[0,0.5],[1,0.5]];portConstraint=eastwest;fontStyle=0" parent="ljuwAe2FuJhUJJeVi3LY-53" vertex="1">
          <mxGeometry y="26" width="390" height="34" as="geometry" />
        </mxCell>
        <mxCell id="ljuwAe2FuJhUJJeVi3LY-55" value="" style="line;strokeWidth=1;fillColor=none;align=left;verticalAlign=middle;spacingTop=-1;spacingLeft=3;spacingRight=3;rotatable=0;labelPosition=right;points=[];portConstraint=eastwest;" parent="ljuwAe2FuJhUJJeVi3LY-53" vertex="1">
          <mxGeometry y="60" width="390" height="8" as="geometry" />
        </mxCell>
        <mxCell id="ljuwAe2FuJhUJJeVi3LY-56" value="+ EEPROMVar&lt;T&gt;(path:const char*, default_value: T)&#xa;+ operator=(new_value: const T): EEPROMVar&lt;T&gt;&amp;&#xa;+ operator T&amp;(): T&#xa;+ Update(T new_value): void&#xa;+ Update(): void&#xa;+ UpdateNow(T new_value): void&#xa;+ UpdateNow(): void" style="text;strokeColor=none;fillColor=none;align=left;verticalAlign=top;spacingLeft=4;spacingRight=4;overflow=hidden;rotatable=0;points=[[0,0.5],[1,0.5]];portConstraint=eastwest;" parent="ljuwAe2FuJhUJJeVi3LY-53" vertex="1">
          <mxGeometry y="68" width="390" height="112" as="geometry" />
        </mxCell>
        <mxCell id="k_DI012g5SNQRkkewyLQ-21" style="edgeStyle=orthogonalEdgeStyle;rounded=0;orthogonalLoop=1;jettySize=auto;html=1;entryX=0.5;entryY=1.004;entryDx=0;entryDy=0;entryPerimeter=0;endArrow=none;endFill=0;endSize=12;startArrow=diamondThin;startFill=1;startSize=12;" edge="1" parent="1" source="ljuwAe2FuJhUJJeVi3LY-60" target="k_DI012g5SNQRkkewyLQ-6">
          <mxGeometry relative="1" as="geometry" />
        </mxCell>
        <mxCell id="ljuwAe2FuJhUJJeVi3LY-60" value="EEPROManager" style="swimlane;fontStyle=1;align=center;verticalAlign=top;childLayout=stackLayout;horizontal=1;startSize=26;horizontalStack=0;resizeParent=1;resizeParentMax=0;resizeLast=0;collapsible=1;marginBottom=0;" parent="1" vertex="1">
          <mxGeometry x="-763.75" y="455.5" width="505" height="280" as="geometry" />
        </mxCell>
        <mxCell id="ljuwAe2FuJhUJJeVi3LY-61" value="- startAddr: const uint16_t&#xa;- lastVarInfoAddr: uint16_t&#xa;- lastVarInfo: VariableInfo&#xa;- isInited: bool&#xa;- eepromUpdater: EEPROMReaderWriter*" style="text;strokeColor=none;fillColor=none;align=left;verticalAlign=top;spacingLeft=4;spacingRight=4;overflow=hidden;rotatable=0;points=[[0,0.5],[1,0.5]];portConstraint=eastwest;fontStyle=4" parent="ljuwAe2FuJhUJJeVi3LY-60" vertex="1">
          <mxGeometry y="26" width="505" height="84" as="geometry" />
        </mxCell>
        <mxCell id="ljuwAe2FuJhUJJeVi3LY-62" value="" style="line;strokeWidth=1;fillColor=none;align=left;verticalAlign=middle;spacingTop=-1;spacingLeft=3;spacingRight=3;rotatable=0;labelPosition=right;points=[];portConstraint=eastwest;" parent="ljuwAe2FuJhUJJeVi3LY-60" vertex="1">
          <mxGeometry y="110" width="505" height="8" as="geometry" />
        </mxCell>
        <mxCell id="ljuwAe2FuJhUJJeVi3LY-63" value="+ GetOrAddVar&lt;T&gt;(path: const char*, data: T*): uint16_t&#xa;+ Update&lt;T&gt;(addr: const uint16_t, data: const T): void&#xa;+ UpdateNow&lt;T&gt;(addr: const uint16_t, data: const T): void&#xa;- init(): void&#xa;- getVar&lt;T&gt;(path: const char*, data: T*) const: uint16_t&#xa;- addVar&lt;T&gt;(path: const char*, data: const T*): uint16_t&#xa;- readValue&lt;T&gt;(addr: const uint16_t): T&#xa;- getDataAddr(var_info_addr: const uint16_t): uint16_t&#xa;- setVariablesExistence(vars_exist: const bool): void&#xa;- GetNewVarInfoAddr(): void" style="text;strokeColor=none;fillColor=none;align=left;verticalAlign=top;spacingLeft=4;spacingRight=4;overflow=hidden;rotatable=0;points=[[0,0.5],[1,0.5]];portConstraint=eastwest;fontStyle=4" parent="ljuwAe2FuJhUJJeVi3LY-60" vertex="1">
          <mxGeometry y="118" width="505" height="162" as="geometry" />
        </mxCell>
        <mxCell id="ljuwAe2FuJhUJJeVi3LY-67" value="&lt;p style=&quot;margin: 0px ; margin-top: 4px ; text-align: center&quot;&gt;&lt;i&gt;&amp;lt;&amp;lt;struct&amp;gt;&amp;gt;&lt;/i&gt;&lt;br&gt;&lt;b&gt;VariableInfo&lt;/b&gt;&lt;br&gt;&lt;/p&gt;&lt;hr size=&quot;1&quot;&gt;&lt;p style=&quot;margin: 0px ; margin-left: 4px&quot;&gt;+ PathHash: uint32_t&lt;br&gt;+ DataSize: uint16_t&lt;/p&gt;&lt;p style=&quot;margin: 0px ; margin-left: 4px&quot;&gt;+ NextVarAddr: uint16_t&lt;/p&gt;" style="verticalAlign=top;align=left;overflow=fill;fontSize=12;fontFamily=Helvetica;html=1;fillColor=none;" parent="1" vertex="1">
          <mxGeometry x="-151.75" y="473.5" width="190" height="100" as="geometry" />
        </mxCell>
        <mxCell id="ljuwAe2FuJhUJJeVi3LY-69" value="T" style="rounded=0;whiteSpace=wrap;html=1;dashed=1;" parent="1" vertex="1">
          <mxGeometry x="-332.75" y="790" width="31" height="20" as="geometry" />
        </mxCell>
        <mxCell id="ljuwAe2FuJhUJJeVi3LY-75" value="EEPROMPartition" style="swimlane;fontStyle=1;align=center;verticalAlign=top;childLayout=stackLayout;horizontal=1;startSize=26;horizontalStack=0;resizeParent=1;resizeParentMax=0;resizeLast=0;collapsible=1;marginBottom=0;" parent="1" vertex="1">
          <mxGeometry x="-706.25" y="1145" width="390" height="110" as="geometry" />
        </mxCell>
        <mxCell id="ljuwAe2FuJhUJJeVi3LY-76" value="- path: const char*" style="text;strokeColor=none;fillColor=none;align=left;verticalAlign=top;spacingLeft=4;spacingRight=4;overflow=hidden;rotatable=0;points=[[0,0.5],[1,0.5]];portConstraint=eastwest;fontStyle=0" parent="ljuwAe2FuJhUJJeVi3LY-75" vertex="1">
          <mxGeometry y="26" width="390" height="24" as="geometry" />
        </mxCell>
        <mxCell id="ljuwAe2FuJhUJJeVi3LY-77" value="" style="line;strokeWidth=1;fillColor=none;align=left;verticalAlign=middle;spacingTop=-1;spacingLeft=3;spacingRight=3;rotatable=0;labelPosition=right;points=[];portConstraint=eastwest;" parent="ljuwAe2FuJhUJJeVi3LY-75" vertex="1">
          <mxGeometry y="50" width="390" height="8" as="geometry" />
        </mxCell>
        <mxCell id="ljuwAe2FuJhUJJeVi3LY-78" value="+ EEPROMPartition(path: const char*)&#xa;+ GetVar&lt;T&gt;(name: const char*, default: T): EEPROMVar&lt;T&gt;&#xa;+ GetSubPartition(relative_path: const char*): EEPROMPartition" style="text;strokeColor=none;fillColor=none;align=left;verticalAlign=top;spacingLeft=4;spacingRight=4;overflow=hidden;rotatable=0;points=[[0,0.5],[1,0.5]];portConstraint=eastwest;" parent="ljuwAe2FuJhUJJeVi3LY-75" vertex="1">
          <mxGeometry y="58" width="390" height="52" as="geometry" />
        </mxCell>
        <mxCell id="ljuwAe2FuJhUJJeVi3LY-79" value="В GetVar:&lt;br&gt;&amp;nbsp; EEPROMVar(path + &#39;/&#39;+ name, default)&lt;br&gt;В&amp;nbsp;GetSubPartition:&lt;br&gt;&amp;nbsp; EEPROMPartition(path + &#39;/&#39; +relative_path)" style="shape=note;whiteSpace=wrap;html=1;size=14;verticalAlign=top;align=left;spacingTop=-6;dashed=1;" parent="1" vertex="1">
          <mxGeometry x="-706.25" y="1294" width="240" height="60" as="geometry" />
        </mxCell>
        <mxCell id="ljuwAe2FuJhUJJeVi3LY-80" style="edgeStyle=orthogonalEdgeStyle;rounded=0;orthogonalLoop=1;jettySize=auto;html=1;endArrow=classicThin;endFill=1;endSize=10;strokeWidth=1;exitX=-0.004;exitY=0.627;exitDx=0;exitDy=0;exitPerimeter=0;entryX=0.001;entryY=0.091;entryDx=0;entryDy=0;entryPerimeter=0;" parent="1" source="ljuwAe2FuJhUJJeVi3LY-79" target="ljuwAe2FuJhUJJeVi3LY-75" edge="1">
          <mxGeometry relative="1" as="geometry">
            <mxPoint x="-830.75" y="1195" as="targetPoint" />
            <mxPoint x="-870.75" y="1195" as="sourcePoint" />
            <Array as="points">
              <mxPoint x="-753.75" y="1332" />
              <mxPoint x="-753.75" y="1155" />
            </Array>
          </mxGeometry>
        </mxCell>
        <mxCell id="ljuwAe2FuJhUJJeVi3LY-81" value="Create" style="endArrow=open;endSize=12;dashed=1;html=1;rounded=0;exitX=0.5;exitY=0;exitDx=0;exitDy=0;entryX=0.497;entryY=1.019;entryDx=0;entryDy=0;entryPerimeter=0;" parent="1" source="ljuwAe2FuJhUJJeVi3LY-75" target="ljuwAe2FuJhUJJeVi3LY-56" edge="1">
          <mxGeometry x="-0.3104" y="2" width="160" relative="1" as="geometry">
            <mxPoint x="-443.75" y="1085" as="sourcePoint" />
            <mxPoint x="-283.75" y="1085" as="targetPoint" />
            <mxPoint as="offset" />
          </mxGeometry>
        </mxCell>
        <mxCell id="ljuwAe2FuJhUJJeVi3LY-85" style="edgeStyle=orthogonalEdgeStyle;rounded=0;orthogonalLoop=1;jettySize=auto;html=1;endArrow=classicThin;endFill=1;endSize=10;strokeWidth=1;exitX=0.5;exitY=1;exitDx=0;exitDy=0;exitPerimeter=0;" parent="1" source="ljuwAe2FuJhUJJeVi3LY-86" edge="1">
          <mxGeometry relative="1" as="geometry">
            <mxPoint x="-197.75" y="679.5" as="targetPoint" />
            <Array as="points">
              <mxPoint x="-196.75" y="679.5" />
            </Array>
          </mxGeometry>
        </mxCell>
        <mxCell id="ZltMo-0MAToDY_ug4AOP-5" style="edgeStyle=orthogonalEdgeStyle;rounded=0;orthogonalLoop=1;jettySize=auto;html=1;" parent="1" source="ljuwAe2FuJhUJJeVi3LY-86" edge="1">
          <mxGeometry relative="1" as="geometry">
            <mxPoint x="-196.75" y="523.5" as="targetPoint" />
          </mxGeometry>
        </mxCell>
        <mxCell id="ljuwAe2FuJhUJJeVi3LY-86" value="Приватная&lt;br&gt;вложенная&lt;br&gt;структура" style="shape=note;whiteSpace=wrap;html=1;size=14;verticalAlign=top;align=left;spacingTop=-6;dashed=1;" parent="1" vertex="1">
          <mxGeometry x="-241.75" y="578" width="90" height="50" as="geometry" />
        </mxCell>
        <mxCell id="ZltMo-0MAToDY_ug4AOP-1" value="&lt;p style=&quot;margin: 0px ; margin-top: 4px ; text-align: center&quot;&gt;&lt;i&gt;&amp;lt;&amp;lt;struct&amp;gt;&amp;gt;&lt;/i&gt;&lt;br&gt;&lt;b&gt;MetaData&lt;/b&gt;&lt;br&gt;&lt;/p&gt;&lt;hr size=&quot;1&quot;&gt;&lt;p style=&quot;margin: 0px ; margin-left: 4px&quot;&gt;+ ControlValue: uint16_t&lt;br&gt;+ ComileTimestamp: int32_t&lt;/p&gt;" style="verticalAlign=top;align=left;overflow=fill;fontSize=12;fontFamily=Helvetica;html=1;fillColor=none;" parent="1" vertex="1">
          <mxGeometry x="-141.75" y="659.5" width="190" height="80" as="geometry" />
        </mxCell>
        <mxCell id="ZltMo-0MAToDY_ug4AOP-4" value="" style="endArrow=open;startArrow=circlePlus;endFill=0;startFill=0;endSize=8;html=1;strokeWidth=1;exitX=0.997;exitY=0.653;exitDx=0;exitDy=0;entryX=0;entryY=0.25;entryDx=0;entryDy=0;exitPerimeter=0;" parent="1" source="ljuwAe2FuJhUJJeVi3LY-63" target="ZltMo-0MAToDY_ug4AOP-1" edge="1">
          <mxGeometry width="160" relative="1" as="geometry">
            <mxPoint x="-246.75" y="523.5" as="sourcePoint" />
            <mxPoint x="-131.75" y="523.5" as="targetPoint" />
          </mxGeometry>
        </mxCell>
        <mxCell id="k_DI012g5SNQRkkewyLQ-3" value="EEPROMReaderWriter" style="swimlane;fontStyle=1;align=center;verticalAlign=top;childLayout=stackLayout;horizontal=1;startSize=26;horizontalStack=0;resizeParent=1;resizeParentMax=0;resizeLast=0;collapsible=1;marginBottom=0;whiteSpace=wrap;html=1;" vertex="1" parent="1">
          <mxGeometry x="-790" y="240" width="557.5" height="170" as="geometry" />
        </mxCell>
        <mxCell id="k_DI012g5SNQRkkewyLQ-5" value="" style="line;strokeWidth=1;fillColor=none;align=left;verticalAlign=middle;spacingTop=-1;spacingLeft=3;spacingRight=3;rotatable=0;labelPosition=right;points=[];portConstraint=eastwest;strokeColor=inherit;" vertex="1" parent="k_DI012g5SNQRkkewyLQ-3">
          <mxGeometry y="26" width="557.5" height="8" as="geometry" />
        </mxCell>
        <mxCell id="k_DI012g5SNQRkkewyLQ-6" value="+ ScheduleUpdate&amp;lt;T&amp;gt;(addr: const uint16_t, data: const T): void&lt;br&gt;+ UpdateNow&amp;lt;T&amp;gt;(addr: const uint16_t, data: const T): void&lt;br style=&quot;border-color: var(--border-color); padding: 0px; margin: 0px;&quot;&gt;+ ReadValue&amp;lt;T&amp;gt;(addr: const uint16_t) const: T&lt;br&gt;- virtual scheduleUpdate(upd:UpdateInfo): void&lt;br style=&quot;border-color: var(--border-color);&quot;&gt;- virtual updateNow(upd:UpdateInfo): void&lt;br&gt;- virtual readBytes(addr: const uint16_t, data uint8_t*, data_len: uint16_t) const: void&lt;br style=&quot;border-color: var(--border-color);&quot;&gt;" style="text;strokeColor=none;fillColor=none;align=left;verticalAlign=top;spacingLeft=4;spacingRight=4;overflow=hidden;rotatable=0;points=[[0,0.5],[1,0.5]];portConstraint=eastwest;whiteSpace=wrap;html=1;" vertex="1" parent="k_DI012g5SNQRkkewyLQ-3">
          <mxGeometry y="34" width="557.5" height="136" as="geometry" />
        </mxCell>
        <mxCell id="k_DI012g5SNQRkkewyLQ-14" style="edgeStyle=orthogonalEdgeStyle;rounded=0;orthogonalLoop=1;jettySize=auto;html=1;endArrow=block;endFill=0;endSize=10;" edge="1" parent="1" source="k_DI012g5SNQRkkewyLQ-10" target="k_DI012g5SNQRkkewyLQ-3">
          <mxGeometry relative="1" as="geometry">
            <Array as="points">
              <mxPoint x="-656.75" y="220" />
              <mxPoint x="-510.75" y="220" />
            </Array>
          </mxGeometry>
        </mxCell>
        <mxCell id="k_DI012g5SNQRkkewyLQ-10" value="EEPROMReaderWriterESP" style="swimlane;fontStyle=1;align=center;verticalAlign=top;childLayout=stackLayout;horizontal=1;startSize=26;horizontalStack=0;resizeParent=1;resizeParentMax=0;resizeLast=0;collapsible=1;marginBottom=0;whiteSpace=wrap;html=1;" vertex="1" parent="1">
          <mxGeometry x="-790" y="40" width="266.25" height="160" as="geometry" />
        </mxCell>
        <mxCell id="k_DI012g5SNQRkkewyLQ-11" value="- updateThreshold: const uint8_t&lt;br&gt;- updateCounter: uint8_t" style="text;strokeColor=none;fillColor=none;align=left;verticalAlign=top;spacingLeft=4;spacingRight=4;overflow=hidden;rotatable=0;points=[[0,0.5],[1,0.5]];portConstraint=eastwest;whiteSpace=wrap;html=1;" vertex="1" parent="k_DI012g5SNQRkkewyLQ-10">
          <mxGeometry y="26" width="266.25" height="44" as="geometry" />
        </mxCell>
        <mxCell id="k_DI012g5SNQRkkewyLQ-12" value="" style="line;strokeWidth=1;fillColor=none;align=left;verticalAlign=middle;spacingTop=-1;spacingLeft=3;spacingRight=3;rotatable=0;labelPosition=right;points=[];portConstraint=eastwest;strokeColor=inherit;" vertex="1" parent="k_DI012g5SNQRkkewyLQ-10">
          <mxGeometry y="70" width="266.25" height="8" as="geometry" />
        </mxCell>
        <mxCell id="k_DI012g5SNQRkkewyLQ-13" value="- virtual scheduleUpdate(upd:UpdateInfo): void&lt;br style=&quot;border-color: var(--border-color);&quot;&gt;- virtual updateNow(upd:UpdateInfo): void&lt;br&gt;- prepareUpdateBytes(upd:UpdateInfo): void&lt;br&gt;- commitUpdate(): void&lt;br style=&quot;border-color: var(--border-color); padding: 0px; margin: 0px;&quot;&gt;- updateBytes(upd:UpdateInfo): void" style="text;strokeColor=none;fillColor=none;align=left;verticalAlign=top;spacingLeft=4;spacingRight=4;overflow=hidden;rotatable=0;points=[[0,0.5],[1,0.5]];portConstraint=eastwest;whiteSpace=wrap;html=1;" vertex="1" parent="k_DI012g5SNQRkkewyLQ-10">
          <mxGeometry y="78" width="266.25" height="82" as="geometry" />
        </mxCell>
        <mxCell id="k_DI012g5SNQRkkewyLQ-20" value="Use" style="endArrow=open;endSize=12;dashed=1;html=1;rounded=0;exitX=0.5;exitY=0;exitDx=0;exitDy=0;" edge="1" parent="1" source="ljuwAe2FuJhUJJeVi3LY-53" target="ljuwAe2FuJhUJJeVi3LY-63">
          <mxGeometry x="-0.3104" y="2" width="160" relative="1" as="geometry">
            <mxPoint x="-512.75" y="1130" as="sourcePoint" />
            <mxPoint x="-516.75" y="1072" as="targetPoint" />
            <mxPoint as="offset" />
          </mxGeometry>
        </mxCell>
        <mxCell id="k_DI012g5SNQRkkewyLQ-22" value="1" style="text;html=1;resizable=0;points=[];autosize=1;align=left;verticalAlign=top;spacingTop=-4;" vertex="1" parent="1">
          <mxGeometry x="-502.5" y="410" width="20" height="20" as="geometry" />
        </mxCell>
        <mxCell id="k_DI012g5SNQRkkewyLQ-24" value="1" style="text;html=1;resizable=0;points=[];autosize=1;align=left;verticalAlign=top;spacingTop=-4;" vertex="1" parent="1">
          <mxGeometry x="-502.5" y="435.5" width="20" height="20" as="geometry" />
        </mxCell>
        <mxCell id="k_DI012g5SNQRkkewyLQ-25" value="&lt;p style=&quot;margin: 0px ; margin-top: 4px ; text-align: center&quot;&gt;&lt;i&gt;&amp;lt;&amp;lt;struct&amp;gt;&amp;gt;&lt;/i&gt;&lt;br&gt;&lt;b&gt;UpdateInfo&lt;/b&gt;&lt;br&gt;&lt;/p&gt;&lt;hr size=&quot;1&quot;&gt;&lt;p style=&quot;margin: 0px ; margin-left: 4px&quot;&gt;+ Addr: uint16_t&lt;br&gt;+ Data: uint8_t*&lt;/p&gt;&lt;p style=&quot;margin: 0px ; margin-left: 4px&quot;&gt;+ Size: uint16_t&lt;/p&gt;" style="verticalAlign=top;align=left;overflow=fill;fontSize=12;fontFamily=Helvetica;html=1;fillColor=none;" vertex="1" parent="1">
          <mxGeometry x="-153.75" y="292" width="190" height="100" as="geometry" />
        </mxCell>
        <mxCell id="k_DI012g5SNQRkkewyLQ-30" style="edgeStyle=orthogonalEdgeStyle;rounded=0;orthogonalLoop=1;jettySize=auto;html=1;endArrow=block;endFill=0;startSize=10;endSize=10;" edge="1" parent="1" source="k_DI012g5SNQRkkewyLQ-26" target="k_DI012g5SNQRkkewyLQ-3">
          <mxGeometry relative="1" as="geometry">
            <Array as="points">
              <mxPoint x="-367.75" y="220" />
              <mxPoint x="-510.75" y="220" />
            </Array>
          </mxGeometry>
        </mxCell>
        <mxCell id="k_DI012g5SNQRkkewyLQ-26" value="EEPROMReaderWriterAVR" style="swimlane;fontStyle=1;align=center;verticalAlign=top;childLayout=stackLayout;horizontal=1;startSize=26;horizontalStack=0;resizeParent=1;resizeParentMax=0;resizeLast=0;collapsible=1;marginBottom=0;whiteSpace=wrap;html=1;" vertex="1" parent="1">
          <mxGeometry x="-502.5" y="40" width="270" height="160" as="geometry" />
        </mxCell>
        <mxCell id="k_DI012g5SNQRkkewyLQ-27" value="- updateThreshold: const uint8_t&lt;br&gt;- updateCounter: uint8_t" style="text;strokeColor=none;fillColor=none;align=left;verticalAlign=top;spacingLeft=4;spacingRight=4;overflow=hidden;rotatable=0;points=[[0,0.5],[1,0.5]];portConstraint=eastwest;whiteSpace=wrap;html=1;" vertex="1" parent="k_DI012g5SNQRkkewyLQ-26">
          <mxGeometry y="26" width="270" height="44" as="geometry" />
        </mxCell>
        <mxCell id="k_DI012g5SNQRkkewyLQ-28" value="" style="line;strokeWidth=1;fillColor=none;align=left;verticalAlign=middle;spacingTop=-1;spacingLeft=3;spacingRight=3;rotatable=0;labelPosition=right;points=[];portConstraint=eastwest;strokeColor=inherit;" vertex="1" parent="k_DI012g5SNQRkkewyLQ-26">
          <mxGeometry y="70" width="270" height="8" as="geometry" />
        </mxCell>
        <mxCell id="k_DI012g5SNQRkkewyLQ-29" value="- virtual scheduleUpdate(upd:UpdateInfo): void&lt;br style=&quot;border-color: var(--border-color);&quot;&gt;- virtual updateNow(upd:UpdateInfo): void&lt;br style=&quot;border-color: var(--border-color); padding: 0px; margin: 0px;&quot;&gt;- updateBytes(upd:UpdateInfo): void" style="text;strokeColor=none;fillColor=none;align=left;verticalAlign=top;spacingLeft=4;spacingRight=4;overflow=hidden;rotatable=0;points=[[0,0.5],[1,0.5]];portConstraint=eastwest;whiteSpace=wrap;html=1;" vertex="1" parent="k_DI012g5SNQRkkewyLQ-26">
          <mxGeometry y="78" width="270" height="82" as="geometry" />
        </mxCell>
        <mxCell id="k_DI012g5SNQRkkewyLQ-32" value="" style="endArrow=open;startArrow=circlePlus;endFill=0;startFill=0;endSize=8;html=1;strokeWidth=1;exitX=1;exitY=0.5;exitDx=0;exitDy=0;entryX=0;entryY=0.5;entryDx=0;entryDy=0;" edge="1" parent="1" source="ljuwAe2FuJhUJJeVi3LY-61" target="ljuwAe2FuJhUJJeVi3LY-67">
          <mxGeometry width="160" relative="1" as="geometry">
            <mxPoint x="-248.75" y="689.5" as="sourcePoint" />
            <mxPoint x="-131.75" y="689.5" as="targetPoint" />
          </mxGeometry>
        </mxCell>
        <mxCell id="k_DI012g5SNQRkkewyLQ-33" value="" style="endArrow=open;startArrow=circlePlus;endFill=0;startFill=0;endSize=8;html=1;strokeWidth=1;exitX=1;exitY=0.5;exitDx=0;exitDy=0;entryX=0;entryY=0.5;entryDx=0;entryDy=0;" edge="1" parent="1" source="k_DI012g5SNQRkkewyLQ-6" target="k_DI012g5SNQRkkewyLQ-25">
          <mxGeometry width="160" relative="1" as="geometry">
            <mxPoint x="-248.75" y="578" as="sourcePoint" />
            <mxPoint x="-133.75" y="578" as="targetPoint" />
          </mxGeometry>
        </mxCell>
      </root>
    </mxGraphModel>
  </diagram>
</mxfile>
